<?xml version="1.0" standalone="no"?>
<!DOCTYPE svg PUBLIC "-//W3C//DTD SVG 20010904//EN"
 "http://www.w3.org/TR/2001/REC-SVG-20010904/DTD/svg10.dtd">
<svg version="1.0" xmlns="http://www.w3.org/2000/svg"
 width="194.000000pt" height="194.000000pt" viewBox="0 0 194.000000 194.000000"
 preserveAspectRatio="xMidYMid meet">
<metadata>
Created by potrace 1.14, written by Peter Selinger 2001-2017
</metadata>
<g transform="translate(0.000000,194.000000) scale(0.100000,-0.100000)"
fill="#000000" stroke="none">
<path d="M370 1927 c-119 -17 -252 -113 -308 -222 -52 -103 -52 -106 -52 -742
1 -562 2 -595 21 -649 54 -160 172 -268 323 -298 44 -9 221 -12 646 -10 527 1
590 3 635 18 146 51 245 155 291 305 21 68 15 1259 -6 1311 -41 99 -98 170
-179 224 -103 69 -99 69 -742 70 -317 1 -600 -2 -629 -7z"/>
</g>
</svg>
